<svg width="192" height="192" viewBox="0 0 192 192" fill="none" xmlns="http://www.w3.org/2000/svg">
<circle cx="96" cy="96" r="96" fill="#111827"/>
<path fill-rule="evenodd" clip-rule="evenodd" d="M156.086 170.876C177.984 153.28 192 126.277 192 96C192 42.9807 149.019 0 96 0C42.9807 0 0 42.9807 0 96C0 126.519 14.2414 153.712 36.4412 171.296C35.4262 166.23 36.1025 160.697 39.093 155.222C42.0411 149.826 45.7646 144.827 50.1908 140.401C55.923 134.669 62.6141 130.116 69.887 126.898C59.5144 118.968 52.8235 106.465 52.8235 92.4C52.8235 68.4308 72.2543 49 96.2235 49C120.193 49 139.623 68.4308 139.623 92.4C139.623 106.465 132.933 118.968 122.56 126.898C129.833 130.116 136.524 134.669 142.256 140.401C146.682 144.827 150.406 149.826 153.354 155.222C156.262 160.546 156.982 165.925 156.086 170.876Z" fill="#6366F1"/>
</svg>
