<svg width="184" height="88" viewBox="0 0 184 88" fill="none" xmlns="http://www.w3.org/2000/svg">
<path d="M38.96 58H31.424V42.448H30.992L28.16 58H20.432L17.744 42.448H17.264V58H9.824L10.832 28.192H21.632L24.32 44.32H24.704L27.296 28.192H37.952L38.96 58ZM45.6136 31.312C47.4696 28.912 50.4936 27.712 54.6856 27.712C58.8776 27.712 61.8696 28.896 63.6616 31.264C65.4856 33.632 66.3976 37.488 66.3976 42.832C66.3976 48.144 65.4696 52.08 63.6136 54.64C61.7576 57.2 58.7496 58.48 54.5896 58.48C50.4296 58.48 47.4376 57.216 45.6136 54.688C43.7896 52.16 42.8776 48.24 42.8776 42.928C42.8776 37.584 43.7896 33.712 45.6136 31.312ZM58.1416 42.832C58.1416 39.888 57.9016 37.904 57.4216 36.88C56.9736 35.824 56.0296 35.296 54.5896 35.296C53.1816 35.296 52.2696 35.824 51.8536 36.88C51.4376 37.904 51.2296 39.872 51.2296 42.784V43.936C51.2296 47.04 51.4536 49.088 51.9016 50.08C52.3816 51.04 53.3256 51.52 54.7336 51.52C56.1736 51.52 57.1016 51.056 57.5176 50.128C57.9336 49.2 58.1416 47.28 58.1416 44.368V42.832ZM92.1777 28.192L87.1377 58H74.4657L69.0897 28.192H78.1617L80.7537 47.728H81.5697L83.5377 28.192H92.1777ZM104.46 58H96.3001V28.192H104.46V58ZM126.267 58H110.139V28.192H126.747L126.267 35.536H118.347V40H125.211V46.336H118.347V51.28H126.747L126.267 58ZM138.906 48.208C138.906 49.2 139.114 49.936 139.53 50.416C139.946 50.896 140.618 51.136 141.546 51.136C142.506 51.136 143.162 50.912 143.514 50.464C143.898 49.984 144.09 49.216 144.09 48.16V28.192H152.346V48.64C152.346 52.064 151.402 54.56 149.514 56.128C147.658 57.696 144.906 58.48 141.258 58.48C137.642 58.48 134.938 57.712 133.146 56.176C131.386 54.608 130.506 52.128 130.506 48.736V28.192H138.906V48.208ZM156.184 37.168C156.184 34.32 157.016 32.032 158.68 30.304C160.344 28.576 162.616 27.712 165.496 27.712C168.408 27.712 171.384 28 174.424 28.576L173.464 36.256C170.296 35.52 168.12 35.152 166.936 35.152C165.432 35.152 164.68 35.76 164.68 36.976C164.68 37.456 165.032 37.92 165.736 38.368C166.472 38.816 167.352 39.296 168.376 39.808C169.4 40.288 170.424 40.88 171.448 41.584C172.472 42.256 173.336 43.232 174.04 44.512C174.776 45.792 175.144 47.264 175.144 48.928C175.144 51.968 174.328 54.32 172.696 55.984C171.064 57.648 168.744 58.48 165.736 58.48C162.76 58.48 159.848 58.016 157 57.088L157.528 49.936C160.952 50.928 163.336 51.424 164.68 51.424C166.024 51.424 166.696 50.832 166.696 49.648C166.696 49.04 166.328 48.48 165.592 47.968C164.888 47.456 164.024 46.944 163 46.432C161.976 45.92 160.936 45.328 159.88 44.656C158.856 43.984 157.976 43.008 157.24 41.728C156.536 40.448 156.184 38.928 156.184 37.168Z" fill="#6366F1"/>
</svg>
